<svg xmlns="http://www.w3.org/2000/svg" xmlns:xlink="http://www.w3.org/1999/xlink" viewBox="0 0 418.88 420.76"><defs><style>.cls-1{fill:url(#linear-gradient);}.cls-2{fill:url(#linear-gradient-2);}.cls-3{fill:#fff;fill-rule:evenodd;}</style><linearGradient id="linear-gradient" x1="209.44" y1="413.48" x2="209.44" y2="7.29" gradientUnits="userSpaceOnUse"><stop offset="0" stop-color="#20b038"/><stop offset="1" stop-color="#60d66a"/></linearGradient><linearGradient id="linear-gradient-2" x1="209.44" y1="420.76" x2="209.44" gradientUnits="userSpaceOnUse"><stop offset="0" stop-color="#f9f9f9"/><stop offset="1" stop-color="#fff"/></linearGradient></defs><g id="Capa_2" data-name="Capa 2"><g id="WhatsApp_Logo" data-name="WhatsApp Logo"><path id="shape_3" data-name="shape 3" class="cls-1" d="M7.25,413.48l28.57-104.3A201,201,0,0,1,8.94,208.55C9,97.57,99.31,7.29,210.28,7.29A201.35,201.35,0,0,1,411.63,208.71C411.58,319.69,321.25,410,210.29,410h-.09A201.26,201.26,0,0,1,114,385.49Z"/><path id="shape_2" data-name="shape 2" class="cls-2" d="M0,420.76l29.59-108A208.15,208.15,0,0,1,1.75,208.49C1.8,93.53,95.35,0,210.32,0A208.57,208.57,0,0,1,418.88,208.65c-.05,115-93.62,208.5-208.56,208.5h-.09a208.44,208.44,0,0,1-99.67-25.38ZM115.69,354l6.33,3.76a173.18,173.18,0,0,0,88.23,24.16h.07c95.54,0,173.31-77.75,173.35-173.3A173.36,173.36,0,0,0,210.38,35.22C114.76,35.22,37,113,37,208.5a172.8,172.8,0,0,0,26.51,92.22l4.12,6.56-17.51,64Z"/><path id="shape_1" data-name="shape 1" class="cls-3" d="M158.19,121.33c-3.9-8.68-8-8.86-11.73-9-3-.13-6.51-.12-10-.12a19.17,19.17,0,0,0-13.9,6.52c-4.78,5.22-18.24,17.82-18.24,43.46s18.68,50.42,21.28,53.9,36,57.77,89,78.66c44,17.36,53,13.9,62.53,13S308,295.17,312.35,283s4.34-22.59,3-24.77-4.78-3.48-10-6.08-30.83-15.22-35.61-17-8.25-2.6-11.73,2.62-13.45,16.94-16.49,20.42-6.08,3.91-11.29,1.31-22-8.11-41.91-25.87c-15.49-13.81-26-30.87-29-36.08s-.33-8,2.28-10.64c2.34-2.33,5.22-6.08,7.82-9.12s3.47-5.22,5.21-8.69.87-6.53-.44-9.13S162.82,131.63,158.19,121.33Z"/></g></g></svg>