<?xml version="1.0" encoding="UTF-8"?>
<svg width="74px" height="52px" viewBox="0 0 74 52" version="1.1" xmlns="http://www.w3.org/2000/svg" xmlns:xlink="http://www.w3.org/1999/xlink">
    <title>logoipsum-292</title>
    <defs>
        <filter id="filter-1">
            <feColorMatrix in="SourceGraphic" type="matrix" values="0 0 0 0 1.000000 0 0 0 0 1.000000 0 0 0 0 1.000000 0 0 0 1.000000 0"></feColorMatrix>
        </filter>
    </defs>
    <g id="mockup" stroke="none" stroke-width="1" fill="none" fill-rule="evenodd">
        <g id="logoipsum-292" transform="translate(-831.000000, -1660.000000)" filter="url(#filter-1)">
            <g transform="translate(831.000000, 1660.000000)">
                <path d="M1.92705208,16.0501693 C0.0109490127,20.8011114 -0.490392609,26.0287819 0.486499787,31.0724096 C1.46327378,36.1158516 3.87441738,40.7486794 7.414836,44.3847788 C10.9552546,48.0208782 15.4661647,50.497192 20.3768226,51.5004204 C25.2878321,52.5036488 30.3779216,51.9886632 35.0038461,50.020835 C39.6295856,48.0530067 43.5834052,44.7203644 46.3650649,40.4448509 C46.4392499,40.3308223 46.5125099,40.2162366 46.5848449,40.1010938 C46.6359049,40.0199367 46.6865948,39.9382224 46.7369148,39.8563224 L46.7369148,52 L48.6842246,52 C53.6912491,52 58.5857936,50.475092 62.7488481,47.6180639 C66.9120877,44.7614073 70.1568024,40.7005794 72.0728472,35.9496374 C73.989077,31.198881 74.4904269,25.9712105 73.513442,20.9275828 C72.5366421,15.8841594 70.1257224,11.2513502 66.5851927,7.61525079 C63.0446631,3.97902141 58.5338086,1.50282269 53.6231691,0.499648148 C48.7121596,-0.503647108 43.6220702,0.0112458836 38.9961457,1.9791389 C34.3704062,3.94704142 30.4165866,7.2795537 27.6349269,11.5551787 C27.5083869,11.7497701 27.3844369,11.9460515 27.2630769,12.1436886 L27.2630769,0 L25.3157671,0 C20.3087426,0 15.4142167,1.52491712 11.2511066,4.3818542 C7.08797804,7.23865942 3.84317088,11.2993202 1.92705208,16.0501693 Z M23.3684573,25.9999962 L23.3684573,4.09108139 C19.8190477,4.42384419 16.3955121,5.66237255 13.4149034,7.70764363 C9.89220774,10.1250118 7.14669703,13.5610412 5.5253572,17.5809377 C3.90401738,21.6009827 3.47981242,26.0243248 4.30635533,30.2920383 C5.13289825,34.5595662 7.17309653,38.4796226 10.1687827,41.5563507 C13.1645984,44.6330787 16.981481,46.7283069 21.1368026,47.5772068 C25.2920871,48.4261067 29.5990717,47.990421 33.5133012,46.325307 C37.2702808,44.7270501 40.5033405,42.065022 42.8384103,38.6545655 C41.0687004,39.5173939 39.0892007,40.0000652 36.9999959,40.0000652 C29.4716067,40.0000652 23.3684573,33.7318377 23.3684573,25.9999962 Z M50.6315344,47.9088925 L50.6315344,25.9999962 C50.6315344,18.2680618 44.5283851,12.0000095 36.9999959,12.0000095 C34.9107911,12.0000095 32.9312913,12.4826728 31.1615815,13.3454641 C33.4966512,9.93495182 36.7297109,7.27283085 40.4866905,5.6746854 C44.4009201,4.00953426 48.7079046,3.57386719 52.8631892,4.42274848 C57.0184738,5.27161119 60.8353934,7.36695083 63.831283,10.4436046 C66.8269877,13.5203883 68.8671675,17.4404262 69.6935624,21.7079541 C70.5201423,25.9756676 70.0959374,30.3990097 68.4745975,34.4189805 C66.8534427,38.4389512 64.107858,41.8750363 60.5850884,44.2922931 C57.6045537,46.3375642 54.1809441,47.5760925 50.6315344,47.9088925 Z M36.8051909,35.9981088 C31.5822714,35.8928088 27.3676019,31.5639953 27.2651119,26.2000105 L30.9488315,26.2000105 C33.8548112,26.8802818 36.142521,29.2295671 36.8051909,32.2141809 L36.8051909,35.9981088 Z M37.1946159,35.9981088 C42.4175353,35.8928088 46.6323899,31.5639953 46.7348798,26.2000105 L43.0511602,26.2000105 C40.1448105,26.8802818 37.8571008,29.2299385 37.1946159,32.2149237 L37.1946159,35.9981088 Z M46.7348798,25.799982 C46.6323899,20.4359972 42.4175353,16.1071836 37.1946159,16.0019579 L37.1946159,19.7850687 C37.8571008,22.7698682 40.1446255,25.1195249 43.0506052,25.799982 L46.7348798,25.799982 Z M36.8051909,16.0019579 C31.5824564,16.1071836 27.3676019,20.4359972 27.2651119,25.799982 L30.9493865,25.799982 C33.8551812,25.1195249 36.142706,22.7702396 36.8051909,19.7858116 L36.8051909,16.0019579 Z" id="Shape" fill="#8046FD"></path>
            </g>
        </g>
    </g>
</svg>