<?xml version="1.0" encoding="UTF-8"?>
<svg width="145px" height="51px" viewBox="0 0 145 51" version="1.1" xmlns="http://www.w3.org/2000/svg" xmlns:xlink="http://www.w3.org/1999/xlink">
    <title>logoipsum-242</title>
    <defs>
        <filter id="filter-1">
            <feColorMatrix in="SourceGraphic" type="matrix" values="0 0 0 0 1.000000 0 0 0 0 1.000000 0 0 0 0 1.000000 0 0 0 1.000000 0"></feColorMatrix>
        </filter>
    </defs>
    <g id="mockup" stroke="none" stroke-width="1" fill="none" fill-rule="evenodd">
        <g id="logoipsum-242" transform="translate(-334.000000, -1659.000000)" filter="url(#filter-1)">
            <g transform="translate(334.000000, 1659.000000)">
                <path d="M27.68558,26.01996 C27.68558,23.93906 28.92798,22.48946 30.82668,22.48946 C32.72538,22.48946 33.96768,23.93906 33.96768,26.01996 C33.96768,28.07756 32.72538,29.55046 30.82668,29.55046 C28.92798,29.55046 27.68558,28.07756 27.68558,26.01996 Z" id="Path" fill="#152C4F" fill-rule="nonzero"></path>
                <path d="M43.74318,22.39596 C41.93828,22.39596 40.71938,23.79876 40.71938,25.71606 C40.71938,27.65666 41.96168,29.10626 43.74318,29.10626 C45.71218,29.10626 47.02488,27.63326 47.02488,25.71606 C47.02488,23.82216 45.71218,22.39596 43.74318,22.39596 Z" id="Path" fill="#152C4F" fill-rule="nonzero"></path>
                <path d="M54.20648,26.01996 C54.20648,23.93906 55.44888,22.48946 57.34758,22.48946 C59.24628,22.48946 60.48858,23.93906 60.48858,26.01996 C60.48858,28.07756 59.24628,29.55046 57.34758,29.55046 C55.44888,29.55046 54.20648,28.07756 54.20648,26.01996 Z" id="Path" fill="#152C4F" fill-rule="nonzero"></path>
                <path d="M73.30868,26.04336 C73.30868,23.96246 74.57448,22.51286 76.56688,22.51286 C78.55938,22.51286 79.75478,23.98586 79.75478,26.04336 C79.75478,28.10086 78.55938,29.55046 76.56688,29.55046 C74.57448,29.55046 73.30868,28.12426 73.30868,26.04336 Z" id="Path" fill="#152C4F" fill-rule="nonzero"></path>
                <path d="M72.11538,50.48076 C111.94338,50.48076 144.23038,39.18026 144.23038,25.24036 C144.23038,11.30046 111.94338,0 72.11538,0 C32.28718,0 0,11.30046 0,25.24036 C0,39.18026 32.28718,50.48076 72.11538,50.48076 Z M23.05208,31.81846 L23.05208,14.42306 L20.19228,14.42306 L20.19228,31.81846 L23.05208,31.81846 Z M24.80238,26.01996 C24.80238,29.57386 27.19338,32.09906 30.82668,32.09906 C34.45998,32.09906 36.85088,29.57386 36.85088,26.01996 C36.85088,22.46606 34.45998,19.94096 30.82668,19.94096 C27.19338,19.94096 24.80238,22.46606 24.80238,26.01996 Z M43.25098,31.58466 C39.99268,31.58466 37.81268,29.15306 37.81268,25.78616 C37.81268,22.39596 40.03958,19.89416 43.34468,19.89416 C45.05588,19.89416 46.50918,20.61906 47.21238,21.83486 L47.37648,20.26826 L49.90808,20.26826 L49.90808,31.23396 C49.90808,35.04506 47.51718,37.49996 43.76668,37.49996 C40.57868,37.49996 38.25808,35.53606 37.88308,32.51986 L40.76628,32.51986 C40.93028,34.03966 42.14928,34.90476 43.93068,34.90476 C45.92318,34.90476 47.11868,33.64216 47.11868,31.74826 L47.11868,29.78436 C46.39198,30.90656 44.93868,31.58466 43.25098,31.58466 Z M51.32328,26.01996 C51.32328,29.57386 53.71428,32.09906 57.34758,32.09906 C60.98088,32.09906 63.37178,29.57386 63.37178,26.01996 C63.37178,22.46606 60.98088,19.94096 57.34758,19.94096 C53.71428,19.94096 51.32328,22.46606 51.32328,26.01996 Z M68.17788,16.20006 C68.17788,17.15866 67.40438,17.90686 66.46668,17.90686 C65.50568,17.90686 64.77898,17.15866 64.77898,16.20006 C64.77898,15.26476 65.50568,14.51656 66.46668,14.51656 C67.40438,14.51656 68.17788,15.26476 68.17788,16.20006 Z M67.89658,20.26826 L67.89658,31.81846 L65.03688,31.81846 L65.03688,20.26826 L67.89658,20.26826 Z M70.40198,37.17266 L73.19148,37.17266 L73.19148,30.22856 C73.91808,31.42096 75.48858,32.12236 77.22328,32.12236 C80.64558,32.12236 82.68488,29.50376 82.63798,25.90306 C82.56768,22.27906 80.48148,19.91756 77.19978,19.91756 C75.44178,19.91756 73.84778,20.68916 73.14458,22.02186 L72.98048,20.26826 L70.40198,20.26826 L70.40198,37.17266 Z M88.00538,32.12236 C85.23938,32.12236 83.45788,30.64936 83.36418,28.35806 L85.96608,28.35806 C85.96608,29.36346 86.69268,29.94796 87.95848,29.94796 C89.01338,29.94796 89.88068,29.52716 89.88068,28.61526 C89.88068,27.96056 89.41178,27.60986 88.66168,27.39946 L86.64588,26.88506 C84.41898,26.30056 83.55168,25.06136 83.55168,23.56496 C83.55168,21.36716 85.40348,19.91756 87.88818,19.91756 C90.39628,19.91756 92.10748,21.36716 92.20128,23.65856 L89.59938,23.65856 C89.59938,22.65316 88.89608,22.04526 87.81788,22.04526 C86.78648,22.04526 86.15358,22.60636 86.15358,23.40136 C86.15358,24.14956 86.73958,24.45346 87.60688,24.68726 L89.64628,25.17826 C91.54498,25.64586 92.57628,26.76816 92.57628,28.42826 C92.57628,30.67276 90.72448,32.12236 88.00538,32.12236 Z M98.50838,32.12236 C100.07838,32.12236 101.57838,31.39756 102.25838,30.32206 L102.44638,31.81846 L105.11838,31.81846 L105.11838,20.26826 L102.25838,20.26826 L102.25838,26.32396 C102.25838,28.40486 101.46138,29.57386 99.58638,29.57386 C98.13338,29.57386 97.12538,28.87246 97.12538,26.48766 L97.12538,20.26826 L94.26528,20.26826 L94.26528,27.49296 C94.26528,30.25196 95.76548,32.12236 98.50838,32.12236 Z M110.50238,25.17826 L110.50238,31.81846 L107.64238,31.81846 L107.64238,20.26826 L110.26738,20.26826 L110.40838,21.57766 C111.08838,20.54886 112.30738,19.91756 113.66638,19.91756 C115.58838,19.91756 116.85438,20.75926 117.48738,22.11536 C118.05038,20.75926 119.43338,19.91756 121.19138,19.91756 C124.00438,19.91756 125.48038,21.60106 125.48038,24.26646 L125.48038,31.81846 L122.71438,31.81846 L122.71438,24.92106 C122.71438,23.28446 121.82438,22.41936 120.44138,22.41936 C119.08138,22.41936 118.00338,23.30786 118.00338,25.20166 L118.00338,31.81846 L115.21338,31.81846 L115.21338,24.92106 C115.21338,23.28446 114.32338,22.41936 112.96338,22.41936 C111.60438,22.41936 110.50238,23.30786 110.50238,25.17826 Z" id="Shape" fill="#152C4F"></path>
            </g>
        </g>
    </g>
</svg>