<?xml version="1.0" encoding="UTF-8"?>
<svg width="150px" height="30px" viewBox="0 0 150 30" version="1.1" xmlns="http://www.w3.org/2000/svg" xmlns:xlink="http://www.w3.org/1999/xlink">
    <title>logoipsum-237</title>
    <defs>
        <filter id="filter-1">
            <feColorMatrix in="SourceGraphic" type="matrix" values="0 0 0 0 1.000000 0 0 0 0 1.000000 0 0 0 0 1.000000 0 0 0 1.000000 0"></feColorMatrix>
        </filter>
    </defs>
    <g id="mockup" stroke="none" stroke-width="1" fill="none" fill-rule="evenodd">
        <g id="logoipsum-237" transform="translate(-122.000000, -1669.000000)" filter="url(#filter-1)">
            <g transform="translate(122.000000, 1669.000000)">
                <path d="M43.1094,20.6914 C43.1094,21.4336 42.957,22.0039 42.6523,22.4023 C42.3555,22.8008 41.8594,23 41.1641,23 C40.5078,23 40.043,22.8008 39.7695,22.4023 C39.5039,22.0039 39.3711,21.4336 39.3711,20.6914 L39.3711,8.3047 C39.3711,7.5625 39.5039,6.99219 39.7695,6.59375 C40.043,6.19531 40.5078,5.99609 41.1641,5.99609 C41.8594,5.99609 42.3555,6.19531 42.6523,6.59375 C42.957,6.99219 43.1094,7.5625 43.1094,8.3047 L43.1094,20.6914 Z" id="Path" fill="#09355D" fill-rule="nonzero"></path>
                <path d="M44.2442,17.0938 C44.2442,16.2656 44.377,15.4844 44.6427,14.75 C44.9161,14.0078 45.3223,13.3594 45.8614,12.8047 C46.4083,12.25 47.088,11.8086 47.9005,11.4805 C48.7208,11.1523 49.6817,10.9883 50.7833,10.9883 C51.838,10.9883 52.7716,11.1406 53.5841,11.4453 C54.3966,11.75 55.0802,12.1758 55.6348,12.7227 C56.1895,13.2617 56.6114,13.9062 56.9005,14.6562 C57.1895,15.3984 57.3341,16.2109 57.3341,17.0938 C57.3341,17.9141 57.1973,18.6914 56.9239,19.4258 C56.6505,20.1523 56.2403,20.793 55.6934,21.3477 C55.1466,21.8945 54.463,22.332 53.6427,22.6602 C52.8223,22.9805 51.8692,23.1406 50.7833,23.1406 C49.713,23.1406 48.7677,22.9883 47.9473,22.6836 C47.1348,22.3711 46.4513,21.9453 45.8966,21.4062 C45.3497,20.8594 44.9356,20.2188 44.6544,19.4844 C44.3809,18.7422 44.2442,17.9453 44.2442,17.0938 Z M48.1466,17.0938 C48.1466,17.6094 48.1934,18.1016 48.2872,18.5703 C48.3809,19.0312 48.5294,19.4375 48.7325,19.7891 C48.9434,20.1406 49.2169,20.4219 49.5528,20.6328 C49.8888,20.8359 50.2989,20.9375 50.7833,20.9375 C51.2286,20.9375 51.6153,20.8438 51.9434,20.6562 C52.2794,20.4688 52.5528,20.207 52.7638,19.8711 C52.9825,19.5352 53.1466,19.1328 53.2559,18.6641 C53.3653,18.1875 53.42,17.6641 53.42,17.0938 C53.42,16.5781 53.3692,16.0898 53.2677,15.6289 C53.1739,15.1602 53.0216,14.75 52.8106,14.3984 C52.5997,14.0391 52.3263,13.7578 51.9903,13.5547 C51.6622,13.3438 51.2598,13.2383 50.7833,13.2383 C50.3067,13.2383 49.9005,13.3398 49.5645,13.543 C49.2286,13.7461 48.9552,14.0234 48.7442,14.375 C48.5333,14.7266 48.3809,15.1367 48.2872,15.6055 C48.1934,16.0742 48.1466,16.5703 48.1466,17.0938 Z" id="Shape" fill="#09355D" fill-rule="nonzero"></path>
                <path d="M66.9533,20.7383 C66.7423,21.1289 66.4845,21.4609 66.1798,21.7344 C65.883,22.0078 65.5509,22.2344 65.1838,22.4141 C64.8244,22.5859 64.4377,22.7148 64.0236,22.8008 C63.6173,22.8789 63.1994,22.918 62.7697,22.918 C62.0509,22.918 61.3947,22.7891 60.8009,22.5312 C60.2072,22.2734 59.6955,21.9023 59.2658,21.418 C58.8439,20.9258 58.5158,20.3242 58.2814,19.6133 C58.047,18.9023 57.9298,18.0898 57.9298,17.1758 C57.9298,16.3164 58.0392,15.5117 58.258,14.7617 C58.4767,14.0117 58.7931,13.3594 59.2072,12.8047 C59.6291,12.25 60.1447,11.8125 60.7541,11.4922 C61.3634,11.1719 62.0588,11.0117 62.84,11.0117 C63.7306,11.0117 64.5197,11.1836 65.2072,11.5273 C65.9025,11.8711 66.5002,12.4336 67.0002,13.2148 L67.0002,12.9102 C67.0002,12.3477 67.1525,11.9258 67.4572,11.6445 C67.7697,11.3555 68.1994,11.2109 68.7463,11.2109 C69.0744,11.2109 69.3517,11.2656 69.5783,11.375 C69.8048,11.4766 69.9845,11.6328 70.1173,11.8438 C70.2502,12.0469 70.3439,12.3008 70.3986,12.6055 C70.4611,12.9023 70.4923,13.2422 70.4923,13.625 L70.4923,21.4766 C70.4923,22.4297 70.3713,23.2812 70.1291,24.0312 C69.8947,24.7812 69.5275,25.4141 69.0275,25.9297 C68.5275,26.4453 67.8869,26.8359 67.1056,27.1016 C66.3244,27.375 65.3947,27.5117 64.3166,27.5117 C63.5588,27.5117 62.8869,27.4766 62.3009,27.4062 C61.7228,27.3438 61.2228,27.2461 60.8009,27.1133 C60.3791,26.9648 60.0588,26.8008 59.84,26.6211 C59.6291,26.4414 59.5236,26.207 59.5236,25.918 C59.5236,25.7539 59.547,25.5977 59.5939,25.4492 C59.6408,25.3008 59.7111,25.168 59.8048,25.0508 C59.9064,24.9414 60.0353,24.8516 60.1916,24.7812 C60.3556,24.7188 60.5548,24.6875 60.7892,24.6875 C61.0392,24.6875 61.2892,24.7031 61.5392,24.7344 C61.797,24.7656 62.0627,24.7969 62.3361,24.8281 C62.6173,24.8672 62.9103,24.9023 63.215,24.9336 C63.5275,24.9648 63.8634,24.9805 64.2228,24.9805 C64.6525,24.9805 65.0353,24.9375 65.3713,24.8516 C65.7072,24.7656 65.9923,24.6133 66.2267,24.3945 C66.4611,24.1758 66.6408,23.8828 66.7658,23.5156 C66.8908,23.1562 66.9533,22.6953 66.9533,22.1328 L66.9533,20.7383 Z M66.9533,17.0938 C66.9533,16.5234 66.9103,16.0039 66.8244,15.5352 C66.7463,15.0664 66.6095,14.668 66.4142,14.3398 C66.2189,14.0039 65.9572,13.7461 65.6291,13.5664 C65.3009,13.3789 64.8908,13.2852 64.3986,13.2852 C63.9142,13.2852 63.5119,13.3828 63.1916,13.5781 C62.8791,13.7734 62.6291,14.043 62.4416,14.3867 C62.2541,14.7305 62.1213,15.1328 62.0431,15.5938 C61.9728,16.0547 61.9377,16.5469 61.9377,17.0703 C61.9377,18.2656 62.1486,19.1641 62.5705,19.7656 C62.9923,20.3672 63.6056,20.668 64.4103,20.668 C64.7853,20.6602 65.1252,20.5898 65.4298,20.457 C65.7423,20.3164 66.0119,20.1016 66.2384,19.8125 C66.465,19.5234 66.6408,19.1562 66.7658,18.7109 C66.8908,18.2656 66.9533,17.7266 66.9533,17.0938 Z" id="Shape" fill="#09355D" fill-rule="nonzero"></path>
                <path d="M71.5686,17.0938 C71.5686,16.2656 71.7014,15.4844 71.967,14.75 C72.2405,14.0078 72.6467,13.3594 73.1858,12.8047 C73.7327,12.25 74.4123,11.8086 75.2248,11.4805 C76.0452,11.1523 77.0061,10.9883 78.1077,10.9883 C79.1623,10.9883 80.0959,11.1406 80.9084,11.4453 C81.7209,11.75 82.4045,12.1758 82.9592,12.7227 C83.5139,13.2617 83.9358,13.9062 84.2248,14.6562 C84.5139,15.3984 84.6584,16.2109 84.6584,17.0938 C84.6584,17.9141 84.5217,18.6914 84.2483,19.4258 C83.9748,20.1523 83.5647,20.793 83.0178,21.3477 C82.4709,21.8945 81.7873,22.332 80.967,22.6602 C80.1467,22.9805 79.1936,23.1406 78.1077,23.1406 C77.0373,23.1406 76.092,22.9883 75.2717,22.6836 C74.4592,22.3711 73.7756,21.9453 73.2209,21.4062 C72.6741,20.8594 72.26,20.2188 71.9787,19.4844 C71.7053,18.7422 71.5686,17.9453 71.5686,17.0938 Z M75.4709,17.0938 C75.4709,17.6094 75.5178,18.1016 75.6116,18.5703 C75.7053,19.0312 75.8537,19.4375 76.0569,19.7891 C76.2678,20.1406 76.5412,20.4219 76.8772,20.6328 C77.2131,20.8359 77.6233,20.9375 78.1077,20.9375 C78.553,20.9375 78.9397,20.8438 79.2678,20.6562 C79.6037,20.4688 79.8772,20.207 80.0881,19.8711 C80.3069,19.5352 80.4709,19.1328 80.5803,18.6641 C80.6897,18.1875 80.7444,17.6641 80.7444,17.0938 C80.7444,16.5781 80.6936,16.0898 80.592,15.6289 C80.4983,15.1602 80.3459,14.75 80.135,14.3984 C79.9241,14.0391 79.6506,13.7578 79.3147,13.5547 C78.9866,13.3438 78.5842,13.2383 78.1077,13.2383 C77.6311,13.2383 77.2248,13.3398 76.8889,13.543 C76.553,13.7461 76.2795,14.0234 76.0686,14.375 C75.8577,14.7266 75.7053,15.1367 75.6116,15.6055 C75.5178,16.0742 75.4709,16.5703 75.4709,17.0938 Z" id="Shape" fill="#09355D" fill-rule="nonzero"></path>
                <path d="M89.6839,7.03906 C89.6839,7.29688 89.6253,7.52734 89.5081,7.73047 C89.3909,7.92578 89.2386,8.0898 89.0511,8.2227 C88.8636,8.3555 88.6448,8.457 88.3948,8.5273 C88.1527,8.5898 87.9027,8.6211 87.6448,8.6211 C87.3714,8.6211 87.1097,8.5859 86.8597,8.5156 C86.6175,8.4453 86.4027,8.3438 86.2152,8.2109 C86.0277,8.0703 85.8792,7.90234 85.7698,7.70703 C85.6605,7.51172 85.6058,7.28906 85.6058,7.03906 C85.6058,6.8125 85.6566,6.60547 85.7581,6.41797 C85.8675,6.22266 86.012,6.05469 86.1917,5.91406 C86.3714,5.77344 86.5863,5.66406 86.8363,5.58594 C87.0863,5.50781 87.3597,5.46875 87.6566,5.46875 C87.9144,5.46875 88.1644,5.50391 88.4066,5.57422 C88.6566,5.64453 88.8753,5.74609 89.0628,5.87891 C89.2503,6.01172 89.3988,6.17578 89.5081,6.37109 C89.6253,6.56641 89.6839,6.78906 89.6839,7.03906 Z M89.5081,20.6914 C89.5081,21.4336 89.3558,22.0039 89.0511,22.4023 C88.7542,22.8008 88.2581,23 87.5628,23 C86.9066,23 86.4417,22.8008 86.1683,22.4023 C85.9027,22.0039 85.7698,21.4336 85.7698,20.6914 L85.7698,13.5195 C85.7698,12.7773 85.9027,12.207 86.1683,11.8086 C86.4417,11.4102 86.9066,11.2109 87.5628,11.2109 C88.2581,11.2109 88.7542,11.4102 89.0511,11.8086 C89.3558,12.207 89.5081,12.7773 89.5081,13.5195 L89.5081,20.6914 Z" id="Shape" fill="#09355D" fill-rule="nonzero"></path>
                <path d="M94.8969,17.0703 C94.8969,17.5938 94.9359,18.082 95.0141,18.5352 C95.1,18.9883 95.2406,19.3867 95.4359,19.7305 C95.6391,20.0664 95.9047,20.332 96.2328,20.5273 C96.5687,20.7227 96.9828,20.8203 97.475,20.8203 C97.9281,20.8203 98.307,20.7266 98.612,20.5391 C98.924,20.3438 99.174,20.0781 99.362,19.7422 C99.549,19.3984 99.682,18.9961 99.76,18.5352 C99.846,18.0742 99.889,17.5742 99.889,17.0352 C99.889,16.6055 99.858,16.168 99.795,15.7227 C99.733,15.2695 99.616,14.8594 99.444,14.4922 C99.272,14.125 99.034,13.8242 98.729,13.5898 C98.424,13.3555 98.026,13.2383 97.5336,13.2383 C97.0414,13.2383 96.6234,13.3164 96.2797,13.4727 C95.9437,13.6289 95.6703,13.8672 95.4594,14.1875 C95.2562,14.5078 95.1117,14.9102 95.0258,15.3945 C94.9398,15.8711 94.8969,16.4297 94.8969,17.0703 Z M94.8852,13.5195 C95.0805,13.1055 95.3305,12.7422 95.6352,12.4297 C95.9398,12.1172 96.2758,11.8555 96.643,11.6445 C97.0102,11.4336 97.393,11.2773 97.7914,11.1758 C98.198,11.0664 98.6,11.0117 98.998,11.0117 C99.717,11.0117 100.366,11.1719 100.944,11.4922 C101.522,11.8125 102.014,12.25 102.42,12.8047 C102.834,13.3516 103.151,14 103.37,14.75 C103.588,15.4922 103.698,16.2891 103.698,17.1406 C103.698,18.0234 103.58,18.832 103.346,19.5664 C103.12,20.3008 102.795,20.9336 102.373,21.4648 C101.959,21.9883 101.459,22.3984 100.873,22.6953 C100.295,22.9922 99.651,23.1406 98.94,23.1406 C98.065,23.1406 97.2836,22.9375 96.5961,22.5312 C95.9086,22.125 95.3383,21.5547 94.8852,20.8203 L94.8852,25.0391 C94.8852,25.7812 94.7328,26.3516 94.4281,26.75 C94.1312,27.1484 93.6352,27.3477 92.9398,27.3477 C92.2836,27.3477 91.8187,27.1484 91.5453,26.75 C91.2797,26.3516 91.1469,25.7812 91.1469,25.0391 L91.1469,13.5195 C91.1469,12.7773 91.2797,12.207 91.5453,11.8086 C91.8187,11.4102 92.2836,11.2109 92.9398,11.2109 C93.6352,11.2109 94.1312,11.4102 94.4281,11.8086 C94.7328,12.207 94.8852,12.7773 94.8852,13.5195 Z" id="Shape" fill="#09355D" fill-rule="nonzero"></path>
                <path d="M107.821,14.3516 C107.821,14.6562 107.954,14.8945 108.219,15.0664 C108.485,15.2305 108.852,15.3672 109.321,15.4766 C109.766,15.5781 110.223,15.6758 110.692,15.7695 C111.161,15.8633 111.618,15.9727 112.063,16.0977 C112.508,16.2148 112.926,16.3555 113.317,16.5195 C113.707,16.6836 114.051,16.8906 114.348,17.1406 C114.645,17.3828 114.879,17.6797 115.051,18.0312 C115.223,18.375 115.309,18.7891 115.309,19.2734 C115.309,19.8828 115.184,20.4258 114.934,20.9023 C114.684,21.3711 114.329,21.7695 113.868,22.0977 C113.415,22.4258 112.872,22.6797 112.239,22.8594 C111.606,23.0391 110.907,23.1328 110.141,23.1406 C109.415,23.1406 108.715,23.0938 108.043,23 C107.372,22.9141 106.774,22.7773 106.25,22.5898 C105.735,22.4023 105.321,22.1719 105.008,21.8984 C104.696,21.6172 104.54,21.2891 104.54,20.9141 C104.54,20.5859 104.645,20.332 104.856,20.1523 C105.067,19.9727 105.336,19.8828 105.665,19.8828 C105.79,19.8828 105.938,19.9062 106.11,19.9531 C106.282,20 106.469,20.0586 106.672,20.1289 C106.875,20.1992 107.09,20.2773 107.317,20.3633 C107.551,20.4414 107.793,20.5117 108.043,20.5742 C108.356,20.6602 108.676,20.7305 109.004,20.7852 C109.34,20.832 109.684,20.8555 110.036,20.8555 C110.254,20.8555 110.469,20.8359 110.68,20.7969 C110.891,20.75 111.079,20.6836 111.243,20.5977 C111.415,20.5039 111.555,20.3867 111.665,20.2461 C111.774,20.1055 111.84,19.9336 111.864,19.7305 C111.887,19.6836 111.907,19.6367 111.922,19.5898 C111.938,19.543 111.946,19.4883 111.946,19.4258 C111.946,19.207 111.844,19.0117 111.641,18.8398 C111.446,18.668 111.168,18.5312 110.809,18.4297 C110.207,18.2891 109.633,18.1602 109.086,18.043 C108.54,17.9258 108.032,17.8008 107.563,17.668 C107.102,17.5352 106.68,17.3828 106.297,17.2109 C105.922,17.0391 105.602,16.8281 105.336,16.5781 C105.079,16.3281 104.875,16.0273 104.727,15.6758 C104.586,15.3242 104.516,14.8984 104.516,14.3984 C104.516,13.8594 104.637,13.3789 104.879,12.957 C105.129,12.5273 105.485,12.168 105.946,11.8789 C106.407,11.5898 106.965,11.3711 107.622,11.2227 C108.278,11.0664 109.02,10.9883 109.848,10.9883 C111.332,10.9883 112.461,11.168 113.235,11.5273 C114.016,11.8789 114.407,12.3398 114.407,12.9102 C114.407,13.2305 114.301,13.4766 114.09,13.6484 C113.879,13.8125 113.625,13.8945 113.329,13.8945 C113.172,13.8945 113.008,13.8672 112.836,13.8125 C112.672,13.75 112.473,13.6836 112.239,13.6133 C112.004,13.5352 111.723,13.4688 111.395,13.4141 C111.075,13.3516 110.676,13.3203 110.2,13.3203 C109.84,13.3203 109.512,13.3359 109.215,13.3672 C108.926,13.3984 108.676,13.4531 108.465,13.5312 C108.262,13.6094 108.102,13.7148 107.985,13.8477 C107.875,13.9805 107.821,14.1484 107.821,14.3516 Z" id="Path" fill="#09355D" fill-rule="nonzero"></path>
                <path d="M120.065,18.6523 C120.065,19.0195 120.112,19.3398 120.206,19.6133 C120.307,19.8867 120.444,20.1172 120.616,20.3047 C120.788,20.4844 120.987,20.6211 121.213,20.7148 C121.448,20.8008 121.698,20.8438 121.963,20.8438 C122.276,20.8438 122.577,20.7969 122.866,20.7031 C123.155,20.6094 123.409,20.4648 123.628,20.2695 C123.854,20.0742 124.034,19.8281 124.167,19.5312 C124.299,19.2344 124.366,18.8867 124.366,18.4883 L124.366,13.5195 C124.366,12.7773 124.499,12.207 124.764,11.8086 C125.038,11.4102 125.503,11.2109 126.159,11.2109 C126.854,11.2109 127.35,11.4102 127.647,11.8086 C127.952,12.207 128.104,12.7773 128.104,13.5195 L128.104,20.6914 C128.104,21.4336 127.952,22.0039 127.647,22.4023 C127.35,22.8008 126.854,23 126.159,23 C125.503,23 125.038,22.8008 124.764,22.4023 C124.499,22.0039 124.366,21.4336 124.366,20.6914 C124.202,21.0508 123.987,21.3789 123.721,21.6758 C123.463,21.9727 123.159,22.2305 122.807,22.4492 C122.463,22.6602 122.081,22.8242 121.659,22.9414 C121.245,23.0586 120.795,23.1172 120.311,23.1172 C119.788,23.1172 119.284,23.0273 118.799,22.8477 C118.323,22.6602 117.901,22.3867 117.534,22.0273 C117.167,21.6602 116.874,21.207 116.655,20.668 C116.436,20.1289 116.327,19.5 116.327,18.7812 L116.327,13.5195 C116.327,12.7773 116.46,12.207 116.725,11.8086 C116.999,11.4102 117.463,11.2109 118.12,11.2109 C118.815,11.2109 119.311,11.4102 119.608,11.8086 C119.913,12.207 120.065,12.7773 120.065,13.5195 L120.065,18.6523 Z" id="Path" fill="#09355D" fill-rule="nonzero"></path>
                <path d="M129.801,13.5195 C129.801,12.7773 129.934,12.207 130.2,11.8086 C130.473,11.4102 130.938,11.2109 131.594,11.2109 C132.29,11.2109 132.786,11.4102 133.083,11.8086 C133.387,12.207 133.54,12.7773 133.54,13.5195 C133.696,13.1445 133.907,12.8047 134.173,12.5 C134.446,12.1875 134.755,11.9219 135.098,11.7031 C135.45,11.4844 135.829,11.3164 136.235,11.1992 C136.641,11.0742 137.063,11.0117 137.501,11.0117 C137.907,11.0117 138.305,11.0664 138.696,11.1758 C139.094,11.2773 139.462,11.4453 139.798,11.6797 C140.141,11.9062 140.442,12.1953 140.7,12.5469 C140.958,12.8984 141.157,13.3203 141.298,13.8125 C141.54,13.2891 141.825,12.8477 142.153,12.4883 C142.481,12.1289 142.837,11.8398 143.219,11.6211 C143.602,11.4023 144.001,11.2461 144.415,11.1523 C144.837,11.0586 145.258,11.0117 145.68,11.0117 C146.18,11.0117 146.657,11.1016 147.11,11.2812 C147.571,11.4609 147.973,11.7344 148.317,12.1016 C148.669,12.4609 148.946,12.918 149.149,13.4727 C149.36,14.0195 149.465,14.6602 149.465,15.3945 L149.465,20.6914 C149.465,21.4336 149.313,22.0039 149.008,22.4023 C148.712,22.8008 148.215,23 147.52,23 C146.864,23 146.399,22.8008 146.126,22.4023 C145.86,22.0039 145.727,21.4336 145.727,20.6914 L145.727,15.5586 C145.727,15.207 145.68,14.8945 145.587,14.6211 C145.493,14.3398 145.36,14.1055 145.188,13.918 C145.024,13.7227 144.829,13.5781 144.602,13.4844 C144.376,13.3828 144.133,13.332 143.876,13.332 C143.555,13.332 143.251,13.3828 142.962,13.4844 C142.673,13.5859 142.419,13.7422 142.2,13.9531 C141.989,14.1641 141.817,14.4336 141.684,14.7617 C141.559,15.0898 141.497,15.4844 141.497,15.9453 L141.497,20.6914 C141.497,21.4336 141.344,22.0039 141.04,22.4023 C140.743,22.8008 140.247,23 139.551,23 C138.895,23 138.43,22.8008 138.157,22.4023 C137.891,22.0039 137.758,21.4336 137.758,20.6914 L137.758,15.7812 C137.758,14.9766 137.59,14.3672 137.255,13.9531 C136.926,13.5391 136.477,13.332 135.907,13.332 C135.571,13.332 135.258,13.3867 134.969,13.4961 C134.68,13.6055 134.43,13.7656 134.219,13.9766 C134.008,14.1875 133.84,14.4492 133.715,14.7617 C133.598,15.0742 133.54,15.4336 133.54,15.8398 L133.54,20.6914 C133.54,21.4336 133.387,22.0039 133.083,22.4023 C132.786,22.8008 132.29,23 131.594,23 C130.938,23 130.473,22.8008 130.2,22.4023 C129.934,22.0039 129.801,21.4336 129.801,20.6914 L129.801,13.5195 Z" id="Path" fill="#09355D" fill-rule="nonzero"></path>
                <path d="M15,21 C11.6863,21 9,18.3137 9,15 C9,11.6863 11.6863,9 15,9 C18.3137,9 21,11.6863 21,15 C21,18.3137 18.3137,21 15,21 Z" id="Path" fill="#51A3EE" fill-rule="nonzero"></path>
                <path d="M3.37623,17.0496 C1.63748,17.3562 0.44566,19.0358 1.11311,20.6704 C2.04495,22.9524 3.53158,24.9856 5.45889,26.5744 C8.2148,28.8461 11.6908,30.06 15.2618,29.9977 C18.8328,29.9354 22.2644,28.6009 24.9394,26.2343 C26.81,24.5793 28.2248,22.4954 29.0765,20.1823 C29.6865,18.5254 28.4367,16.8884 26.6883,16.6427 C24.94,16.397 23.3702,17.6696 22.5066,19.2096 C22.0385,20.0443 21.4308,20.8016 20.7028,21.4457 C19.168,22.8036 17.1991,23.5692 15.1503,23.605 C13.1014,23.6407 11.107,22.9443 9.5258,21.6408 C8.7757,21.0225 8.142,20.2869 7.64502,19.469 C6.72823,17.9601 5.11498,16.743 3.37623,17.0496 Z" id="Path" fill="#51A3EE" fill-rule="nonzero"></path>
                <path d="M29.884,16.8745 C29.9606,16.2604 30,15.6348 30,15 C30,6.71573 23.2843,0 15,0 C6.71573,0 0,6.71573 0,15 C0,15.8147 0.06495,16.6142 0.18996,17.3937 C0.87894,16.4505 1.95426,15.7772 3.11576,15.5724 C4.37245,15.3508 5.51458,15.6556 6.48027,16.2253 C6.42322,15.8251 6.3937,15.416 6.3937,15 C6.3937,10.2469 10.2469,6.3937 15,6.3937 C19.7531,6.3937 23.6063,10.2469 23.6063,15 C23.6063,15.3134 23.5895,15.6229 23.5569,15.9276 C24.5022,15.3243 25.6332,14.9796 26.8971,15.1573 C28.0647,15.3214 29.1625,15.9564 29.884,16.8745 Z" id="Path" fill="#0E4F8B" fill-rule="nonzero"></path>
            </g>
        </g>
    </g>
</svg>