<?xml version="1.0" encoding="UTF-8"?>
<svg width="80px" height="64px" viewBox="0 0 80 64" version="1.1" xmlns="http://www.w3.org/2000/svg" xmlns:xlink="http://www.w3.org/1999/xlink">
    <title>Shape</title>
    <defs>
        <filter id="filter-1">
            <feColorMatrix in="SourceGraphic" type="matrix" values="0 0 0 0 1.000000 0 0 0 0 1.000000 0 0 0 0 1.000000 0 0 0 1.000000 0"></feColorMatrix>
        </filter>
    </defs>
    <g id="mockup" stroke="none" stroke-width="1" fill="none" fill-rule="evenodd">
        <g id="logoipsum-249" transform="translate(-547.000000, -1657.000000)" filter="url(#filter-1)">
            <g transform="translate(547.000000, 1657.000000)">
                <path d="M0,24.01568 L40,0 L80,24.01568 L80,39.97808 L40,64 L0,39.97808 L0,24.01568 Z M40,53.8096 L71.51472,34.88352 L71.51472,29.11216 L71.51312,29.1112 L40,48.03152 L8.486816,29.1112 L8.48528,29.11216 L8.48528,34.88352 L40,53.8096 Z M40,39.20736 L64.16288,24.70016 L58.27664,21.16768 L40,32.14096 L21.72336,21.16768 L15.837152,24.70016 L40,39.20736 Z M40,23.3168 L50.9264,16.75664 L40,10.199472 L29.0736,16.75664 L40,23.3168 Z" id="Shape" fill="#4F46E5"></path>
            </g>
        </g>
    </g>
</svg>